<?xml version="1.0" encoding="utf-8"?>
<!-- Generator: Adobe Illustrator 19.1.1, SVG Export Plug-In . SVG Version: 6.00 Build 0)  -->
<svg version="1.1" id="Camada_1" xmlns="http://www.w3.org/2000/svg" xmlns:xlink="http://www.w3.org/1999/xlink" x="0px" y="0px"
	 viewBox="0 0 150 26" style="enable-background:new 0 0 150 26;" xml:space="preserve">
<style type="text/css">
	.st0{fill:#000000;}
	.st1{fill:#FFFFFF;stroke:#FF6F49;stroke-width:0;stroke-linecap:round;stroke-linejoin:round;}
</style>
<g>
	<path class="st0" d="M25.9,22.5c0,0-0.2,1.3,0.1,1.9c0.3,0.6,1.5,1,1.5,1s2.6,1,3.3,0.1c0.7-0.9,1-3.5,1-3.5l1.4-7.7
		c0,0,0.1-0.9,0.6-1.1c0.5-0.2,0.8,0,0.8,0l13.2,12.1c0,0,0.4,0.3,1,0.3c0.6,0,1.6-0.3,1.6-0.3l1.4-0.6c0,0,0.6-0.4,0.7-0.8
		c0.1-0.3,0.1-0.9,0.1-0.9s-3.4-20.1-3.3-20C49.4,3,49,1.4,48.6,1.2c-0.3-0.2-2.1-0.1-2.1-0.1s-1.6,0.2-2.2,0.4
		c-0.6,0.2-1.2,1-1.1,1.7L45,13.7c0,0,0.1,0.5-0.4,0.7c-0.5,0.2-0.8-0.3-0.8-0.3L31,1.3c0,0-0.3-0.4-1-0.4c-0.8,0-1,1.8-1,1.8
		L25.9,22.5z"/>
	<path class="st0" d="M59.8,17.3l3.9,2.2c0,0,0.5,0.3,0.8,0.3c0.4,0,0.8-0.4,0.8-0.4l1.7-1.2c0,0,0.2-0.2,0.2-0.4
		c0-0.3-0.3-0.5-0.3-0.5l-3.1-1.8c0,0-0.8-0.7-0.9-1.2c-0.1-0.6,0.2-1.5,0.4-2c0.3-0.5,1.1-1.7,2.3-1.7c1.2,0.1,7,2.8,7,2.8
		s2,1.2,2.1,2.2c0.1,1,0,4.3,0,4.3s-0.3,1-1.1,1.6c-0.8,0.5-8,4.5-8,4.5s-0.7,0.1-1.3,0.2c-0.6,0-1.9-0.5-1.9-0.5l-7.9-4.7
		c0,0-1.3-0.7-1.5-2c-0.1-1.3,0.1-10.7,0.1-10.7s0-1.3,1.1-2c1.1-0.8,9.3-5,9.3-5s0.8-0.2,1.5-0.2c0.7,0.1,8.5,3.1,8.5,3.1
		s1.3,0.5,1.5,1.6c0.2,1-0.6,3.4-0.9,3.6c-0.3,0.3-0.8,1-2,1C71,10.4,70.4,10,70.4,10l-5.2-2c0,0-0.5-0.1-0.9-0.1
		c-0.4,0-1.1,0.3-1.1,0.3l-3.3,2c0,0-0.2,0.2-0.3,0.4c-0.1,0.2-0.2,0.8-0.2,0.8l-0.1,4.6C59.5,15.9,59.5,16.9,59.8,17.3z"/>
	<path class="st0" d="M101.1,22.6l3-20c0,0,0.2-1.6,0.9-1.7c0.8-0.2,1.9,1.1,1.9,1.1l6.3,5.9c0,0,0.6,0.6,1.2,0.5
		c0.7-0.1,1.3-0.8,1.3-0.8l6.4-6.3c0,0,0.6-0.4,1.2-0.3c0.6,0.1,0.9,1.2,0.9,1.2l3.4,19.6c0,0,0.3,1.5-0.1,2.1
		c-0.4,0.6-2.4,1.4-3.5,1.4c-1,0-1.5-0.3-2-2.6c-0.5-2.2-1.8-9-1.8-9s-0.3-0.8-1-0.8c-0.7,0-1.2,0.5-1.2,0.5l-2.5,2.7
		c0,0-0.4,0.3-1,0.3c-0.6,0-1.3-0.4-1.3-0.4l-3.3-3.1c0,0-0.3-0.2-0.8-0.1c-0.5,0.1-0.6,1.1-0.6,1.1l-1.7,10c0,0-0.2,1.1-0.7,1.3
		c-0.4,0.2-1.3,0.3-1.3,0.3s-0.7,0-1.2-0.1c-0.5-0.1-1.5-0.5-1.8-0.7C101.3,24.6,100.8,24.7,101.1,22.6z"/>
	<g>
		<path class="st0" d="M99.9,22L88.1,2c0,0-0.4-0.9-0.9-0.8c-0.4,0.1-0.9,0.8-0.9,0.8l-11.7,20c-0.3,0.6-0.3,1.2,0.1,1.8
			c0.3,0.6,1.3,1.3,1.7,1.5c0.4,0.2,1,0.3,1.5,0.3c0.5,0,1.2-0.9,1.2-0.9l2.4-3.5l11.6,0.2c0,0,2.4,3.1,2.8,3.5
			c0.4,0.4,0.9,0.5,1.2,0.5c0.3,0,0.9-0.2,0.9-0.2l1.2-0.8c0,0,0.7-0.6,0.8-1C100,22.8,99.9,22,99.9,22z M89.6,15.5
			c-0.1,0.5-3.8,0.3-3.8,0.3s-1.3-0.1-0.8-1.4l1.8-2.8c0,0,0.3-0.3,0.5-0.3c0.3,0,0.6,0.5,0.6,0.5l1.7,3
			C89.6,14.7,89.8,15,89.6,15.5z"/>
	</g>
	<path class="st0" d="M135,9.6l4-2.1c0,0,0.5-0.3,0.8-0.3c0.4,0,0.8,0.4,0.8,0.4l1.6,1.3c0,0,0.2,0.2,0.2,0.4c0,0.3-0.3,0.5-0.3,0.5
		l-3.1,1.7c0,0-0.8,0.6-0.9,1.2c-0.1,0.6,0.1,1.5,0.4,2c0.2,0.5,1.1,1.8,2.3,1.7c1.2,0,7-2.6,7-2.6s2.1-1.1,2.1-2.1
		c0.1-1,0.1-4.3,0.1-4.3s-0.2-1.1-1.1-1.6c-0.8-0.6-7.9-4.7-7.9-4.7s-0.7-0.2-1.3-0.2c-0.6,0-1.9,0.4-1.9,0.4l-8,4.5
		c0,0-1.4,0.6-1.5,2C128,9.2,128,18.5,128,18.5s0,1.3,1,2.1c1,0.8,9.1,5.2,9.1,5.2s0.8,0.2,1.5,0.2c0.7,0,8.6-2.9,8.6-2.9
		s1.3-0.5,1.6-1.5c0.2-1-0.5-3.4-0.8-3.7c-0.3-0.3-0.7-1-1.9-1.1c-1.2-0.1-1.7,0.3-1.7,0.3l-5.2,1.9c0,0-0.5,0.1-0.9,0.1
		c-0.4,0-1.1-0.3-1.1-0.3l-3.2-2c0,0-0.2-0.2-0.2-0.4c-0.1-0.2-0.1-0.8-0.1-0.8l0.1-4.6C134.6,10.9,134.7,10,135,9.6z"/>
	<g>
		<g>
			<g>
				<path class="st0" d="M26.6,8.5c-0.1-1-1.8-2.3-1.8-2.3s-6.1-4-6.5-4.2c-0.4-0.2-2-1-3.1-1.1c-1.1-0.1-2.5,0.3-2.5,0.3l-7,1.8
					c0,0-1.6,0.4-2.1,1.1c-0.6,0.7-0.7,2-0.7,2L0.8,16.2c0,0-0.1,1.3,0.1,1.9C1.1,18.8,2,19.6,2,19.6s2,1.6,3.1,2.4
					c1.1,0.8,5,3.1,5,3.1s1.6,0.6,2.1,0.6c0.8,0,1.7-0.2,1.7-0.2l7.8-1.8c0,0,1.7-0.4,2.4-1.1c0.7-0.7,0.9-2.4,0.9-2.4l1.6-10.9
					C26.6,9.1,26.6,8.5,26.6,8.5z M21,14.5l-2.3,5.3c-0.2,0.5-0.6,0.8-1.1,0.8l-6.3,0.4c-0.4,0-0.8-0.1-1.1-0.5l-2.9-3.3
					C7,17,6.9,16.6,7,16.2l0.9-4.3C8,11.5,8.2,11.2,8.6,11l4-2c0.5-0.2,1.1-0.2,1.5,0.2l2.9,2.8c0.4,0.4,0.5,1,0.3,1.5L16,16.9
					c-0.1,0.4-0.4,0.6-0.8,0.8c-0.4,0.1-0.8,0.1-1.1-0.1l-2.3-1.2c-0.5-0.2-0.8-0.9-0.3-1.8c0.6-1,1.4-0.7,1.6-0.6
					c0.4,0.2,0.8,0.4,1,0.6c0.2-0.4,0.4-1,0.5-1.2c-0.2-0.3-1.3-1.3-1.7-1.5c-0.5,0.1-2.2,1-2.6,1.3c-0.2,0.7-0.7,2.5-0.7,2.9
					c0.2,0.3,1.7,2.1,2.1,2.3c0.5,0.1,4-0.1,4.8-0.3c0.2-0.3,0.6-1.2,1.8-4c0,0,0,0,0,0c-0.4-0.9-0.9-2.5-1.2-3.3
					c-0.2-0.8-1.1-2.1-1.8-3.1L15,7.2l-0.6-0.8l-2.4-2.4l1.4,0.1c0.8,0.1,2.3,1,3.1,1.6c1.1,1,2.6,2.5,3.3,4.5l1.2,3.1
					C21.1,13.8,21.1,14.2,21,14.5z"/>
				<line class="st1" x1="13" y1="10.8" x2="13" y2="10.8"/>
				<path class="st0" d="M11.4,19.3C11.3,19.3,11.3,19.2,11.4,19.3c-0.1-0.1-0.1-0.1-0.1-0.1L11.4,19.3z"/>
				<path class="st0" d="M13,10.8C13,10.8,13,10.8,13,10.8c0.1,0,0.1,0,0.1,0C13.2,10.8,13,10.8,13,10.8z"/>
			</g>
		</g>
	</g>
</g>
</svg>
